<svg xmlns="http://www.w3.org/2000/svg" viewBox="0 0 1600 1100" font-family="system-ui, -apple-system, 'Segoe UI', sans-serif">
  <defs>
    <radialGradient id="bg" cx="50%" cy="52%" r="75%">
      <stop offset="0%" stop-color="#0f172a"/>
      <stop offset="100%" stop-color="#020617"/>
    </radialGradient>
    <radialGradient id="beatGlow" cx="50%" cy="50%" r="50%">
      <stop offset="0%" stop-color="#67e8f9" stop-opacity="1"/>
      <stop offset="60%" stop-color="#0891b2" stop-opacity="0.55"/>
      <stop offset="100%" stop-color="#0891b2" stop-opacity="0"/>
    </radialGradient>
    <filter id="soft" x="-50%" y="-50%" width="200%" height="200%">
      <feGaussianBlur stdDeviation="3"/>
    </filter>
    <filter id="shadow" x="-50%" y="-50%" width="200%" height="200%">
      <feDropShadow dx="0" dy="2" stdDeviation="3" flood-opacity="0.45"/>
    </filter>
    <marker id="arrow" viewBox="0 0 10 10" refX="9" refY="5" markerWidth="7" markerHeight="7" orient="auto">
      <path d="M0,0 L10,5 L0,10 z" fill="#e2e8f0"/>
    </marker>
    <marker id="arrowMacro" viewBox="0 0 10 10" refX="9" refY="5" markerWidth="6" markerHeight="6" orient="auto">
      <path d="M0,0 L10,5 L0,10 z" fill="#ec4899" opacity="0.9"/>
    </marker>
    <marker id="arrowCtrl" viewBox="0 0 10 10" refX="9" refY="5" markerWidth="6" markerHeight="6" orient="auto">
      <path d="M0,0 L10,5 L0,10 z" fill="#a78bfa" opacity="0.9"/>
    </marker>
    <marker id="arrowArr" viewBox="0 0 10 10" refX="9" refY="5" markerWidth="6" markerHeight="6" orient="auto">
      <path d="M0,0 L10,5 L0,10 z" fill="#84cc16" opacity="0.9"/>
    </marker>
    <style>
      .title { font-size: 26px; font-weight: 600; fill: #e2e8f0; letter-spacing: 1px; }
      .sub   { font-size: 13px; fill: #94a3b8; letter-spacing: 0.4px; }
      .branch { font-size: 17px; font-weight: 600; fill: #f8fafc; }
      .branchsub { font-size: 11px; fill: #cbd5e1; }
      .leaf  { font-size: 11px; fill: #e2e8f0; }
      .legend { font-size: 12px; fill: #cbd5e1; }
      .legendh { font-size: 13px; font-weight: 600; fill: #f8fafc; }
      .axis  { stroke: #334155; stroke-width: 1; stroke-dasharray: 2 4; opacity: 0.4; }
      .spoke { stroke: #475569; stroke-width: 1.5; opacity: 0.65; fill: none; }
    </style>
  </defs>

  <!-- backdrop -->
  <rect width="1600" height="1100" fill="url(#bg)"/>

  <!-- header -->
  <text x="40" y="50" class="title">beats-bitwrap-io · control category</text>
  <text x="40" y="72" class="sub">a transition firing (beat) lifts through deterministic functors; macros + control actions rejoin the branches</text>

  <!-- guide circles -->
  <circle cx="800" cy="580" r="170" fill="none" class="axis"/>
  <circle cx="800" cy="580" r="330" fill="none" class="axis"/>

  <!-- ======= SPOKES ======= -->
  <g class="spoke">
    <line x1="800" y1="580" x2="800" y2="250"/>         <!-- Generate up -->
    <line x1="800" y1="580" x2="1058" y2="374"/>        <!-- Arrange ur -->
    <line x1="800" y1="580" x2="1122" y2="653"/>        <!-- Instruments r -->
    <line x1="800" y1="580" x2="943" y2="877"/>         <!-- Macros lr -->
    <line x1="800" y1="580" x2="657" y2="877"/>         <!-- Control ll -->
    <line x1="800" y1="580" x2="478" y2="653"/>         <!-- Perform l -->
    <line x1="800" y1="580" x2="542" y2="374"/>         <!-- Share ul -->
  </g>

  <!-- ======= CENTER ======= -->
  <circle cx="800" cy="580" r="100" fill="url(#beatGlow)" filter="url(#soft)"/>
  <circle cx="800" cy="580" r="54" fill="#0ea5e9" stroke="#67e8f9" stroke-width="2.5" filter="url(#shadow)"/>
  <text x="800" y="576" text-anchor="middle" font-size="22" font-weight="700" fill="#f0f9ff">beat</text>
  <text x="800" y="594" text-anchor="middle" font-size="10" fill="#bae6fd">transition-fired</text>

  <!-- ======= A · GENERATE (top, children fan above) ======= -->
  <g>
    <rect x="705" y="220" width="190" height="54" rx="12" fill="#0f766e" stroke="#2dd4bf" stroke-width="2" filter="url(#shadow)"/>
    <text x="800" y="247" text-anchor="middle" class="branch">Generate</text>
    <text x="800" y="263" text-anchor="middle" class="branchsub">compose(genre, seed)</text>

    <g font-size="11" fill="#ccfbf1">
      <rect x="440" y="110" width="130" height="22" rx="11" fill="#134e4a" stroke="#2dd4bf"/>
      <text x="505" y="125" text-anchor="middle">euclidean · drums</text>
      <rect x="580" y="140" width="130" height="22" rx="11" fill="#134e4a" stroke="#2dd4bf"/>
      <text x="645" y="155" text-anchor="middle">markov · melody</text>
      <rect x="720" y="155" width="130" height="22" rx="11" fill="#134e4a" stroke="#2dd4bf"/>
      <text x="785" y="170" text-anchor="middle">theory · chords</text>
      <rect x="860" y="140" width="130" height="22" rx="11" fill="#134e4a" stroke="#2dd4bf"/>
      <text x="925" y="155" text-anchor="middle">variety · ghost/walk</text>
      <rect x="300" y="140" width="130" height="22" rx="11" fill="#134e4a" stroke="#2dd4bf"/>
      <text x="365" y="155" text-anchor="middle">structure · sections</text>
      <rect x="1000" y="110" width="130" height="22" rx="11" fill="#134e4a" stroke="#2dd4bf"/>
      <text x="1065" y="125" text-anchor="middle">stingers · fills</text>
    </g>
  </g>

  <!-- ======= E · ARRANGE (upper-right, children fan outward) ======= -->
  <g>
    <rect x="968" y="347" width="180" height="54" rx="12" fill="#3f6212" stroke="#a3e635" stroke-width="2" filter="url(#shadow)"/>
    <text x="1058" y="374" text-anchor="middle" class="branch">Arrange</text>
    <text x="1058" y="390" text-anchor="middle" class="branchsub">endofunctor on Project</text>

    <g font-size="11" fill="#ecfccb">
      <rect x="1200" y="210" width="160" height="22" rx="11" fill="#1a2e05" stroke="#84cc16"/>
      <text x="1280" y="225" text-anchor="middle">structure (8 sizes)</text>
      <rect x="1200" y="240" width="160" height="22" rx="11" fill="#1a2e05" stroke="#84cc16"/>
      <text x="1280" y="255" text-anchor="middle">fadeIn · drumBreak</text>
      <rect x="1200" y="270" width="160" height="22" rx="11" fill="#1a2e05" stroke="#84cc16"/>
      <text x="1280" y="285" text-anchor="middle">feelCurve</text>
      <rect x="1200" y="300" width="160" height="22" rx="11" fill="#1a2e05" stroke="#84cc16"/>
      <text x="1280" y="315" text-anchor="middle">macroCurve</text>
      <rect x="1200" y="330" width="160" height="22" rx="11" fill="#1a2e05" stroke="#84cc16"/>
      <text x="1280" y="345" text-anchor="middle">velocityDeltas</text>
      <rect x="1200" y="360" width="160" height="22" rx="11" fill="#1a2e05" stroke="#84cc16"/>
      <text x="1280" y="375" text-anchor="middle">maxVariants · overlay</text>
    </g>
    <line x1="1148" y1="374" x2="1200" y2="290" class="spoke"/>
  </g>

  <!-- ======= B · INSTRUMENTS (right, children fan right) ======= -->
  <g>
    <rect x="1022" y="626" width="200" height="54" rx="12" fill="#92400e" stroke="#f59e0b" stroke-width="2" filter="url(#shadow)"/>
    <text x="1122" y="653" text-anchor="middle" class="branch">Instruments</text>
    <text x="1122" y="669" text-anchor="middle" class="branchsub">F_inst : Beat → Sound</text>

    <g font-size="11" fill="#fef3c7">
      <rect x="1260" y="475" width="130" height="22" rx="11" fill="#451a03" stroke="#f59e0b"/>
      <text x="1325" y="490" text-anchor="middle">Keys (8)</text>
      <rect x="1400" y="475" width="130" height="22" rx="11" fill="#451a03" stroke="#f59e0b"/>
      <text x="1465" y="490" text-anchor="middle">Bass (6)</text>
      <rect x="1260" y="505" width="130" height="22" rx="11" fill="#451a03" stroke="#f59e0b"/>
      <text x="1325" y="520" text-anchor="middle">Lead (14)</text>
      <rect x="1400" y="505" width="130" height="22" rx="11" fill="#451a03" stroke="#f59e0b"/>
      <text x="1465" y="520" text-anchor="middle">Pad (5)</text>
      <rect x="1260" y="535" width="130" height="22" rx="11" fill="#451a03" stroke="#f59e0b"/>
      <text x="1325" y="550" text-anchor="middle">Pluck/Gtr (6)</text>
      <rect x="1400" y="535" width="130" height="22" rx="11" fill="#451a03" stroke="#f59e0b"/>
      <text x="1465" y="550" text-anchor="middle">Brass/Wind (4)</text>
      <rect x="1260" y="620" width="130" height="22" rx="11" fill="#451a03" stroke="#f59e0b"/>
      <text x="1325" y="635" text-anchor="middle">Drums (4)</text>
      <rect x="1400" y="620" width="130" height="22" rx="11" fill="#451a03" stroke="#f59e0b"/>
      <text x="1465" y="635" text-anchor="middle">EDM (12)</text>
      <rect x="1260" y="650" width="130" height="22" rx="11" fill="#451a03" stroke="#f59e0b"/>
      <text x="1325" y="665" text-anchor="middle">World · Duo · AM (9)</text>
      <rect x="1400" y="650" width="130" height="22" rx="11" fill="#451a03" stroke="#f59e0b"/>
      <text x="1465" y="665" text-anchor="middle">one-shots (31)</text>
    </g>
    <line x1="1222" y1="653" x2="1260" y2="570" class="spoke"/>
  </g>

  <!-- ======= C · MACROS (lower-right, children fan outward) ======= -->
  <g>
    <polygon points="853,877 885,859 1001,859 1033,877 1001,895 885,895"
             fill="#831843" stroke="#ec4899" stroke-width="2" filter="url(#shadow)"/>
    <text x="943" y="872" text-anchor="middle" class="branch">Macros</text>
    <text x="943" y="888" text-anchor="middle" class="branchsub">natural transformations</text>

    <g font-size="11" fill="#fbcfe8">
      <rect x="1055" y="800" width="100" height="22" rx="11" fill="#4a044e" stroke="#ec4899"/>
      <text x="1105" y="815" text-anchor="middle">Mute (6)</text>
      <rect x="1165" y="800" width="100" height="22" rx="11" fill="#4a044e" stroke="#ec4899"/>
      <text x="1215" y="815" text-anchor="middle">FX (10)</text>
      <rect x="1055" y="830" width="100" height="22" rx="11" fill="#4a044e" stroke="#ec4899"/>
      <text x="1105" y="845" text-anchor="middle">Pan (5)</text>
      <rect x="1165" y="830" width="100" height="22" rx="11" fill="#4a044e" stroke="#ec4899"/>
      <text x="1215" y="845" text-anchor="middle">Shape (3)</text>
      <rect x="1055" y="860" width="100" height="22" rx="11" fill="#4a044e" stroke="#ec4899"/>
      <text x="1105" y="875" text-anchor="middle">Pitch (4)</text>
      <rect x="1165" y="860" width="100" height="22" rx="11" fill="#4a044e" stroke="#ec4899"/>
      <text x="1215" y="875" text-anchor="middle">Tempo (4)</text>
      <rect x="1055" y="890" width="100" height="22" rx="11" fill="#4a044e" stroke="#ec4899"/>
      <text x="1105" y="905" text-anchor="middle">Feel (6)</text>
      <rect x="1165" y="890" width="100" height="22" rx="11" fill="#4a044e" stroke="#ec4899"/>
      <text x="1215" y="905" text-anchor="middle">Hits (4)</text>
    </g>
    <line x1="1033" y1="877" x2="1055" y2="855" class="spoke"/>
  </g>

  <!-- ======= D · CONTROL (lower-left) ======= -->
  <g>
    <polygon points="567,877 599,859 715,859 747,877 715,895 599,895"
             fill="#4c1d95" stroke="#a78bfa" stroke-width="2" filter="url(#shadow)"/>
    <text x="657" y="872" text-anchor="middle" class="branch">Control</text>
    <text x="657" y="888" text-anchor="middle" class="branchsub">control-net actions</text>

    <g font-size="11" fill="#ede9fe">
      <rect x="340" y="950" width="120" height="22" rx="11" fill="#2e1065" stroke="#a78bfa"/>
      <text x="400" y="965" text-anchor="middle">mute-track</text>
      <rect x="470" y="950" width="130" height="22" rx="11" fill="#2e1065" stroke="#a78bfa"/>
      <text x="535" y="965" text-anchor="middle">unmute-track</text>
      <rect x="610" y="950" width="120" height="22" rx="11" fill="#2e1065" stroke="#a78bfa"/>
      <text x="670" y="965" text-anchor="middle">toggle-track</text>
      <rect x="740" y="950" width="130" height="22" rx="11" fill="#2e1065" stroke="#a78bfa"/>
      <text x="805" y="965" text-anchor="middle">activate-slot</text>
      <rect x="880" y="950" width="120" height="22" rx="11" fill="#2e1065" stroke="#a78bfa"/>
      <text x="940" y="965" text-anchor="middle">fire-macro</text>
      <rect x="340" y="980" width="120" height="22" rx="11" fill="#2e1065" stroke="#a78bfa"/>
      <text x="400" y="995" text-anchor="middle">set-feel</text>
      <rect x="470" y="980" width="130" height="22" rx="11" fill="#2e1065" stroke="#a78bfa"/>
      <text x="535" y="995" text-anchor="middle">stop-transport</text>
      <rect x="610" y="980" width="120" height="22" rx="11" fill="#2e1065" stroke="#a78bfa"/>
      <text x="670" y="995" text-anchor="middle">mute-note</text>
      <rect x="740" y="980" width="130" height="22" rx="11" fill="#2e1065" stroke="#a78bfa"/>
      <text x="805" y="995" text-anchor="middle">unmute-note</text>
      <rect x="880" y="980" width="120" height="22" rx="11" fill="#2e1065" stroke="#a78bfa"/>
      <text x="940" y="995" text-anchor="middle">toggle-note</text>
      <rect x="380" y="1010" width="140" height="22" rx="11" fill="#2e1065" stroke="#a78bfa"/>
      <text x="450" y="1025" text-anchor="middle">set-visualizer</text>
    </g>
    <line x1="657" y1="895" x2="657" y2="948" class="spoke"/>
  </g>

  <!-- ======= F · PERFORM (left, children fan left) ======= -->
  <g>
    <rect x="378" y="626" width="170" height="54" rx="12" fill="#334155" stroke="#94a3b8" stroke-width="2" filter="url(#shadow)"/>
    <text x="463" y="653" text-anchor="middle" class="branch">Perform</text>
    <text x="463" y="669" text-anchor="middle" class="branchsub">operator surface</text>

    <g font-size="11" fill="#e2e8f0">
      <rect x="70" y="475" width="120" height="22" rx="11" fill="#1e293b" stroke="#94a3b8"/>
      <text x="130" y="490" text-anchor="middle">Mixer</text>
      <rect x="200" y="475" width="120" height="22" rx="11" fill="#1e293b" stroke="#94a3b8"/>
      <text x="260" y="490" text-anchor="middle">Auto-DJ</text>
      <rect x="70" y="505" width="120" height="22" rx="11" fill="#1e293b" stroke="#94a3b8"/>
      <text x="130" y="520" text-anchor="middle">Feel XY</text>
      <rect x="200" y="505" width="120" height="22" rx="11" fill="#1e293b" stroke="#94a3b8"/>
      <text x="260" y="520" text-anchor="middle">Beats (hit1–4)</text>
      <rect x="70" y="535" width="120" height="22" rx="11" fill="#1e293b" stroke="#94a3b8"/>
      <text x="130" y="550" text-anchor="middle">FX master</text>
      <rect x="200" y="535" width="120" height="22" rx="11" fill="#1e293b" stroke="#94a3b8"/>
      <text x="260" y="550" text-anchor="middle">Stage viz</text>
      <rect x="70" y="620" width="250" height="22" rx="11" fill="#1e293b" stroke="#94a3b8"/>
      <text x="195" y="635" text-anchor="middle">Keys: Space G S F M J A P B R T</text>
      <rect x="70" y="650" width="250" height="22" rx="11" fill="#1e293b" stroke="#94a3b8"/>
      <text x="195" y="665" text-anchor="middle">Digits 1–4 · [ ] · ← ↑ → ↓</text>
    </g>
    <line x1="378" y1="653" x2="320" y2="570" class="spoke"/>
  </g>

  <!-- ======= G · SHARE (upper-left) — children stacked fully outside the branch box ======= -->
  <g>
    <rect x="452" y="347" width="180" height="54" rx="12" fill="#713f12" stroke="#fbbf24" stroke-width="2" filter="url(#shadow)"/>
    <text x="542" y="374" text-anchor="middle" class="branch">Share</text>
    <text x="542" y="390" text-anchor="middle" class="branchsub">CID envelope · the IR</text>

    <g font-size="11" fill="#fef3c7">
      <rect x="240" y="210" width="160" height="22" rx="11" fill="#422006" stroke="#fbbf24"/>
      <text x="320" y="225" text-anchor="middle">genre · seed</text>
      <rect x="240" y="240" width="160" height="22" rx="11" fill="#422006" stroke="#fbbf24"/>
      <text x="320" y="255" text-anchor="middle">tempo · swing · humanize</text>
      <rect x="240" y="270" width="160" height="22" rx="11" fill="#422006" stroke="#fbbf24"/>
      <text x="320" y="285" text-anchor="middle">structure · traits</text>
      <rect x="240" y="300" width="160" height="22" rx="11" fill="#422006" stroke="#fbbf24"/>
      <text x="320" y="315" text-anchor="middle">tracks · fx · feel</text>
      <rect x="240" y="330" width="160" height="22" rx="11" fill="#422006" stroke="#fbbf24"/>
      <text x="320" y="345" text-anchor="middle">autoDj · hits · loop</text>
      <rect x="240" y="360" width="160" height="22" rx="11" fill="#422006" stroke="#fbbf24"/>
      <text x="320" y="375" text-anchor="middle">initialMutes · ui</text>
      <rect x="240" y="390" width="160" height="22" rx="11" fill="#422006" stroke="#fbbf24"/>
      <text x="320" y="405" text-anchor="middle">macrosDisabled</text>
      <rect x="240" y="420" width="160" height="22" rx="11" fill="#422006" stroke="#fbbf24"/>
      <text x="320" y="435" text-anchor="middle">nets? (raw)</text>
    </g>
    <line x1="452" y1="374" x2="400" y2="290" class="spoke"/>
  </g>

  <!-- ======= REJOIN ARCS (routed wide around the outside so they don't cross labels) ======= -->

  <!-- Macro family → Instruments (shape/pitch touch per-instrument params) -->
  <g fill="none" stroke="#ec4899" stroke-width="1.6" stroke-dasharray="6 4" opacity="0.8" marker-end="url(#arrowMacro)">
    <path d="M 1215 812 C 1340 780, 1440 740, 1465 705"/>
    <text x="1360" y="762" font-size="10" fill="#f9a8d4">pitch / shape</text>
  </g>

  <!-- Macro family → Perform / Mixer (mute / FX / pan act on mixer state) -->
  <g fill="none" stroke="#ec4899" stroke-width="1.6" stroke-dasharray="6 4" opacity="0.8" marker-end="url(#arrowMacro)">
    <path d="M 1055 815 C 900 740, 560 640, 330 560"/>
    <text x="640" y="688" font-size="10" fill="#f9a8d4">mute · FX · pan → mixer</text>
  </g>

  <!-- Control → Perform / Feel (set-feel snaps the Feel puck) -->
  <g fill="none" stroke="#a78bfa" stroke-width="1.6" stroke-dasharray="6 4" opacity="0.85" marker-end="url(#arrowCtrl)">
    <path d="M 400 990 C 200 960, 80 800, 130 535"/>
    <text x="90" y="780" font-size="10" fill="#c4b5fd">set-feel</text>
  </g>

  <!-- Control → Macros (fire-macro dispatches a macro) -->
  <g fill="none" stroke="#a78bfa" stroke-width="1.6" stroke-dasharray="6 4" opacity="0.85" marker-end="url(#arrowCtrl)">
    <path d="M 940 962 C 1080 985, 1220 960, 1220 918"/>
    <text x="1080" y="1000" font-size="10" fill="#c4b5fd">fire-macro</text>
  </g>

  <!-- Control → Instruments (activate-slot flips riff variants) -->
  <g fill="none" stroke="#a78bfa" stroke-width="1.6" stroke-dasharray="6 4" opacity="0.85" marker-end="url(#arrowCtrl)">
    <path d="M 805 948 C 1200 1020, 1540 900, 1465 680"/>
    <text x="1280" y="1000" font-size="10" fill="#c4b5fd">activate-slot</text>
  </g>

  <!-- Control → Perform mixer (mute-track / *-note touch mixer) -->
  <g fill="none" stroke="#a78bfa" stroke-width="1.6" stroke-dasharray="6 4" opacity="0.75" marker-end="url(#arrowCtrl)">
    <path d="M 400 960 C 260 870, 220 760, 260 560"/>
  </g>

  <!-- Arrange → Control (feelCurve / macroCurve inject control nets) -->
  <g fill="none" stroke="#84cc16" stroke-width="1.6" stroke-dasharray="5 5" opacity="0.8" marker-end="url(#arrowArr)">
    <path d="M 1280 385 C 1380 600, 1200 990, 940 985"/>
    <text x="1390" y="700" font-size="10" fill="#bef264">injects feel- / macro-curve</text>
  </g>

  <!-- ======= LEGEND ======= -->
  <g transform="translate(40, 820)">
    <rect x="0" y="0" width="260" height="220" rx="10" fill="#0b1020" stroke="#334155" opacity="0.95"/>
    <text x="16" y="26" class="legendh">legend</text>

    <circle cx="26" cy="52" r="8" fill="#0ea5e9" stroke="#67e8f9" stroke-width="1.5"/>
    <text x="44" y="56" class="legend">object (beat)</text>

    <rect x="18" y="70" width="18" height="14" rx="4" fill="#0f766e" stroke="#2dd4bf" stroke-width="1.5"/>
    <text x="44" y="82" class="legend">functor family (branch)</text>

    <polygon points="18,102 22,97 34,97 38,102 34,107 22,107" fill="#4c1d95" stroke="#a78bfa" stroke-width="1.5"/>
    <text x="46" y="106" class="legend">natural transformation</text>

    <line x1="18" y1="130" x2="40" y2="130" stroke="#475569" stroke-width="1.5"/>
    <text x="46" y="134" class="legend">deterministic morphism</text>

    <line x1="18" y1="152" x2="40" y2="152" stroke="#ec4899" stroke-width="1.5" stroke-dasharray="5 3"/>
    <text x="46" y="156" class="legend">macro rejoin</text>

    <line x1="18" y1="174" x2="40" y2="174" stroke="#a78bfa" stroke-width="1.5" stroke-dasharray="5 3"/>
    <text x="46" y="178" class="legend">control-action rejoin</text>

    <line x1="18" y1="196" x2="40" y2="196" stroke="#84cc16" stroke-width="1.5" stroke-dasharray="5 3"/>
    <text x="46" y="200" class="legend">arrange DSL injection</text>
  </g>

  <!-- footer -->
  <text x="1560" y="1080" text-anchor="end" class="sub">root: transition-fired · 71 instruments · 42 macros · 11 control actions · 19 genres</text>
</svg>
